<?xml version="1.0" encoding="UTF-8"?>
<svg version="1.1" viewBox="0 0 1296 1296" width="324" height="324" xmlns="http://www.w3.org/2000/svg">
<path transform="translate(0)" d="m0 0h1296v1296h-1296z" fill="#DFE0DF"/>
<path transform="translate(610,152)" d="m0 0h75l30 2 44 5 38 6 36 8 30 8 36 12 29 11 26 12 27 14 20 12 22 15 14 11 11 10 8 7 12 12 9 11 11 15 8 13 10 19 6 16 5 21 2 16v24l-3 19-6 21-9 21-10 18-12 16-12 14-12 13-8 7-13 11-17 13-24 16-21 12-28 14-25 11-37 13-26 8-40 10-36 7-37 5-41 4-44 2h-18l-49-2-35-3-38-5-38-7-34-8-28-8-36-12-24-10-25-12-25-13-20-12-17-12-13-10-14-12-12-11-7-7-7-8-12-15-10-15-11-21-6-16-4-15-3-17-1-12v-16l3-21 6-21 8-19 11-19 12-17 12-14 22-22 11-9 17-13 23-15 17-10 23-12 21-10 39-15 34-11 40-10 41-8 35-5 30-3z" fill="#191A1A"/>
<path transform="translate(205,778)" d="m0 0 7 6 11 11 11 9 12 10 18 13 17 11 15 9 26 14 29 13 33 13 31 10 30 8 29 7 39 7 45 6 35 3 21 1h66l42-3 36-4 44-7 37-8 34-9 36-12 31-12 28-13 20-10 20-12 12-8 17-12 13-10 14-12 12-11 8-8h3l15 26 10 25 5 21 2 14v24l-4 23-6 20-9 20-9 16-7 10-11 14-15 16-12 12-11 9-18 14-20 13-26 15-28 14-32 13-28 10-26 8-44 11-31 6-42 6-33 3-28 2h-65l-33-2-32-3-42-6-40-8-39-10-36-12-19-7-30-13-28-14-17-10-24-16-16-12-14-12-12-11-8-8-18-22-12-19-8-16-7-18-6-25-1-7v-29l3-20 6-21 8-18 10-18z" fill="#136989"/>
<path transform="translate(195,552)" d="m0 0 4 1 9 11 13 13 11 9 10 9 19 14 23 15 21 12 32 16 31 13 25 9 35 11 40 10 38 7 43 6 43 4 19 1h69l44-3 36-4 37-6 38-8 35-9 37-12 32-13 27-12 20-10 22-13 24-16 13-10 10-8 20-18 13-13 5-6 4 1 11 24 6 18 4 19 1 9v23l-3 20-7 24-8 18-8 15-11 16-8 10-12 13-16 16-11 9-14 11-13 9-19 12-22 12-16 8-17 8-36 14-34 11-37 10-27 6-42 7-34 4-47 3h-58l-40-2-30-3-37-5-36-7-30-7-28-8-32-11-27-11-28-13-25-13-19-12-16-11-14-11-14-12-25-25-13-17-11-17-11-23-6-18-4-19-1-7v-30l4-22 5-17 8-18z" fill="#136989"/>
<path transform="translate(625,272)" d="m0 0h44l32 3 32 5 25 6 29 9 22 9 25 13 19 13 13 11 14 14 11 15 8 16 5 16 2 13v9l-3 17-5 14-8 15-9 12-12 13-11 9-13 10-19 11-27 13-25 9-25 7-28 6-30 4-30 2h-32l-31-2-28-4-29-6-28-8-22-8-31-15-14-9-12-9-14-12-8-8-10-13-8-14-6-15-3-16v-18l3-15 6-15 10-16 12-14 10-10 17-13 21-13 22-11 29-11 21-6 22-5 32-5 19-2z" fill="#DFE0DF"/>
</svg>
